<?xml version="1.0" encoding="utf-8"?>
<!-- Generator: Adobe Illustrator 22.1.0, SVG Export Plug-In . SVG Version: 6.00 Build 0)  -->
<svg version="1.1" xmlns="http://www.w3.org/2000/svg" xmlns:xlink="http://www.w3.org/1999/xlink" x="0px" y="0px"
	 viewBox="0 0 1400 1400" style="enable-background:new 0 0 1400 1400;" xml:space="preserve">
<style type="text/css">
	.st0{fill:#FCF7F5;}
	.st1{fill:#EB5D00;}
	.st2{fill:#C95014;}
	.st3{fill:#FFDA98;}
	.st4{fill:#633A2E;}
	.st5{opacity:0.5;}
	.st6{fill:#FF6F19;}
	.st7{fill:#E8E7E6;}
	.st8{fill:#D6D5D4;}
	.st9{fill:#FFB680;}
	.st10{fill:#F4863B;}
	.st11{fill:#875F53;}
	.st12{fill:#49261D;}
	.st13{fill:#C1C1C1;}
	.st14{fill:#472D25;}
	.st15{fill:#C74C00;}
	.st16{fill:#6D453C;}
	.st17{fill:#577719;}
	.st18{fill:#405609;}
	.st19{fill:#9FCC48;}
	.st20{fill:#75A030;}
	.st21{opacity:0.6;}
	.st22{fill:#2B2825;}
	.st23{opacity:0.85;}
	.st24{fill:#3A6320;}
	.st25{fill:#4C7F2A;}
	.st26{fill:#721D1A;}
	.st27{fill:#4C1715;}
	.st28{fill:#681D19;}
	.st29{fill:#FFAE0D;}
	.st30{fill:#C64747;}
	.st31{fill:#F2EEEB;}
	.st32{fill:#D36363;}
	.st33{fill:#4A4742;}
</style>
<g id="BACKGROUND">
	<rect class="st0" width="1400" height="1400"/>
</g>
<g id="OBJECT">
	<g>
		<g>
			<g>
				<path class="st1" d="M428,410.2H178.4c-7.9,0-14.3-6.4-14.3-14.3l0,0c0-7.9,6.4-14.3,14.3-14.3H428c7.9,0,14.3,6.4,14.3,14.3
					l0,0C442.3,403.8,435.9,410.2,428,410.2z"/>
				<path class="st2" d="M441.7,399.8c0.4-1.3,0.6-2.5,0.6-3.9c0-7.9-6.4-14.3-14.3-14.3h-47.6c7.9,0,14.3,6.4,14.3,14.3
					c0,1.4-0.3,2.7-0.6,3.9H164.7c1.7,6,7.2,10.4,13.7,10.4h201.9H428c0.9,0,1.8-0.1,2.6-0.3c0.3-0.1,0.6-0.2,0.9-0.2
					c0.5-0.1,1-0.3,1.5-0.5c0.4-0.1,0.7-0.3,1.1-0.5c0.4-0.2,0.7-0.4,1.1-0.6c0.4-0.2,0.8-0.5,1.2-0.8c0.2-0.2,0.4-0.3,0.6-0.5
					C439.3,405.1,440.9,402.6,441.7,399.8L441.7,399.8L441.7,399.8z"/>
			</g>
			<g>
				<path class="st1" d="M428,216.6H178.4c-7.9,0-14.3-6.4-14.3-14.3l0,0c0-7.9,6.4-14.3,14.3-14.3H428c7.9,0,14.3,6.4,14.3,14.3
					l0,0C442.3,210.1,435.9,216.6,428,216.6z"/>
				<path class="st2" d="M441.7,206.2c0.4-1.3,0.6-2.5,0.6-3.9c0-7.9-6.4-14.3-14.3-14.3h-47.6c7.9,0,14.3,6.4,14.3,14.3
					c0,1.4-0.3,2.7-0.6,3.9H164.7c1.7,6,7.2,10.4,13.7,10.4h201.9H428c0.9,0,1.8-0.1,2.6-0.3c0.3-0.1,0.6-0.2,0.9-0.2
					c0.5-0.1,1-0.3,1.5-0.5c0.4-0.1,0.7-0.3,1.1-0.5c0.4-0.2,0.7-0.4,1.1-0.6c0.4-0.2,0.8-0.5,1.2-0.8c0.2-0.2,0.4-0.3,0.6-0.5
					C439.3,211.4,440.9,209,441.7,206.2L441.7,206.2L441.7,206.2z"/>
			</g>
			<g>
				<g>
					<g>
						<path class="st3" d="M667.2,770.5c-46.1,0-88.2-15.3-115.5-42.4C532,708.4,522.3,685,524.4,662c3.5-38,40.7-74.6,94.8-93.1
							c11.7-4,24.4,2.2,28.5,13.9c4,11.7-2.2,24.4-13.9,28.5c-40,13.8-63.2,38.6-64.7,54.9c-0.9,9.3,4.4,20.3,14.3,30.2
							c22,21.9,59.4,32.5,100.1,28.6c12.3-1.2,23.3,7.8,24.5,20.1c1.2,12.3-7.8,23.3-20.1,24.5C680.9,770.2,674,770.5,667.2,770.5z"
							/>
						<path class="st3" d="M699.5,770.5c-6.8,0-13.7-0.3-20.6-1c-12.3-1.2-21.3-12.2-20.1-24.5c1.2-12.3,12.2-21.3,24.5-20.1
							c40.8,3.9,78.2-6.7,100.1-28.6c10-9.9,15.2-20.9,14.3-30.2c-1.5-16.4-24.7-41.2-64.7-54.9c-11.7-4-17.9-16.8-13.9-28.5
							c4-11.7,16.8-17.9,28.5-13.9c54,18.6,91.2,55.1,94.8,93.1c2.1,22.9-7.6,46.4-27.3,66.1C787.7,755.3,745.6,770.5,699.5,770.5z"
							/>
						<path class="st3" d="M771.7,820.3H593.6V632.6c0-41.5,33.7-75.2,75.2-75.2h27.8c41.5,0,75.2,33.7,75.2,75.2V820.3z"/>
					</g>
					<g>
						<polygon class="st4" points="593.4,790.8 771.6,790.8 734.5,608.1 734.4,608.1 742.5,562.3 720.4,558.5 711.6,608.1 
							653,608.1 644.3,558.5 622.2,562.3 630.3,608.1 630.2,608.1 						"/>
						<g class="st5">
							
								<ellipse transform="matrix(0.7071 -0.7071 0.7071 0.7071 -272.0735 678.0902)" class="st6" cx="682.5" cy="667.5" rx="34.2" ry="34.2"/>
							<g>
								<path class="st4" d="M670,655c-8.8,8.8-10.6,21.2-4.1,27.7l31.7-31.7C691.2,644.4,678.8,646.2,670,655z"/>
								<path class="st4" d="M699,652.3L667.3,684c6.5,6.5,18.9,4.7,27.7-4.1C703.7,671.2,705.6,658.8,699,652.3z"/>
							</g>
						</g>
					</g>
				</g>
				<g>
					<g>
						<path class="st7" d="M700.7,703.7h-77.9c0,20,9,37.3,22,45.5h34C691.7,741,700.7,723.7,700.7,703.7z"/>
						<path class="st8" d="M680.4,703.7c0,20-9,37.3-22,45.5h20.3c13-8.2,22-25.5,22-45.5H680.4z"/>
						<path class="st7" d="M628.1,710.8c-9.1,0-16.4,7.4-16.4,16.4c0,9.1,7.4,16.4,16.4,16.4c9.1,0,16.4-7.4,16.4-16.4
							C644.5,718.2,637.1,710.8,628.1,710.8z M628.1,738.6c-6.3,0-11.4-5.1-11.4-11.4c0-6.3,5.1-11.4,11.4-11.4
							c6.3,0,11.4,5.1,11.4,11.4C639.4,733.5,634.4,738.6,628.1,738.6z"/>
					</g>
					<circle class="st9" cx="596.8" cy="729.7" r="25.7"/>
				</g>
			</g>
			<g>
				<path class="st7" d="M308.6,186.8h77.9c0-20-9-37.3-22-45.5h-34C317.5,149.5,308.6,166.8,308.6,186.8z"/>
				<path class="st8" d="M328.9,186.8c0-20,9-37.3,22-45.5h-20.3c-13,8.2-22,25.5-22,45.5H328.9z"/>
				<path class="st7" d="M381.2,179.7c9.1,0,16.4-7.4,16.4-16.4s-7.4-16.4-16.4-16.4s-16.4,7.4-16.4,16.4S372.1,179.7,381.2,179.7z
					 M381.2,151.9c6.3,0,11.4,5.1,11.4,11.4c0,6.3-5.1,11.4-11.4,11.4c-6.3,0-11.4-5.1-11.4-11.4C369.8,157,374.9,151.9,381.2,151.9
					z"/>
			</g>
			<g>
				<path class="st7" d="M213.3,186.8h77.9c0-20-9-37.3-22-45.5h-34C222.2,149.5,213.3,166.8,213.3,186.8z"/>
				<path class="st8" d="M233.6,186.8c0-20,9-37.3,22-45.5h-20.3c-13,8.2-22,25.5-22,45.5H233.6z"/>
				<path class="st7" d="M285.8,179.7c9.1,0,16.4-7.4,16.4-16.4s-7.4-16.4-16.4-16.4s-16.4,7.4-16.4,16.4S276.8,179.7,285.8,179.7z
					 M285.8,151.9c6.3,0,11.4,5.1,11.4,11.4c0,6.3-5.1,11.4-11.4,11.4c-6.3,0-11.4-5.1-11.4-11.4C274.5,157,279.6,151.9,285.8,151.9
					z"/>
			</g>
			<path class="st9" d="M663.6,544v22.8c0,10.5,8.6,19,19,19c10.5,0,19-8.6,19-19V544H663.6z"/>
			<path class="st10" d="M701.7,556.6v9.9c-6,1.2-12.1,1.8-18.5,1.8c-6.7,0-13.2-0.7-19.5-2.1v-9.9c6.3,1.5,12.8,2.3,19.5,2.3
				C689.6,558.6,695.7,557.9,701.7,556.6z"/>
			<g>
				<polygon class="st11" points="466.1,713.1 466.1,596.4 161.8,596.4 161.8,713.1 161.8,743.3 466.1,743.3 				"/>
				<rect x="161.8" y="743.3" class="st4" width="304.3" height="30.8"/>
				<polygon class="st4" points="463.3,743.3 463.3,774.1 290.9,774.1 301.4,743.3 				"/>
				<path class="st4" d="M466.1,557.2c0-20.6-16.7-37.3-37.3-37.3H199.1c-20.6,0-37.3,16.7-37.3,37.3v39.2h304.3V557.2z"/>
				<polygon class="st12" points="463.3,743.3 463.3,774.1 290.9,774.1 301.4,743.3 				"/>
				<path class="st12" d="M466.1,557.2v39.2H354.1l26-76.6h48.6C449.3,519.9,466.1,536.6,466.1,557.2z"/>
				<circle class="st7" cx="429.2" cy="559.5" r="11.2"/>
				<circle class="st11" cx="397" cy="559.5" r="11.2"/>
				<g>
					<g>
						<path class="st12" d="M453.9,681.6L453.9,681.6c-2.4,4.1-7.6,5.5-11.7,3.1L345.6,629c-4.1-2.4-5.5-7.6-3.1-11.7l0,0
							c2.4-4.1,7.6-5.5,11.7-3.1l96.6,55.8C454.8,672.3,456.2,677.5,453.9,681.6z"/>
						<path class="st13" d="M354.1,614.1c-4.1-2.4-9.3-0.9-11.7,3.1c-2.4,4.1-0.9,9.3,3.1,11.7l23.2,13.4l8.6-14.8L354.1,614.1z"/>
						<path class="st7" d="M338.2,664.2l-3.6-9.8c0-0.1-0.1-0.1-0.1-0.2c-0.5-1.5-1.9-2.5-3.5-2.5H324V642c0-2.1-1.7-3.7-3.7-3.7
							c-2.1,0-3.7,1.7-3.7,3.7l0.1,9.9l-7.2-0.2c-1.6,0-3,1.1-3.5,2.5c0,0.1-0.1,0.1-0.1,0.2l-3.6,9.8c-0.7,1.9,0.3,4.1,2.2,4.8
							c1.9,0.7,4.1-0.3,4.8-2.2l2.8-7.6h16.5l2.8,7.6c0.7,1.9,2.9,2.9,4.8,2.2h0C337.9,668.3,338.9,666.2,338.2,664.2z"/>
						<g>
							<path class="st8" d="M338.2,664.2l-3.6-9.8c0-0.1-0.1-0.1-0.1-0.2c-0.5-1.5-1.9-2.5-3.5-2.5H324V642c0-2.1-1.7-3.7-3.7-3.7
								c-1.5,0-2.7,0.9-3.3,2.1c1.4,0.5,2.4,1.9,2.4,3.5v9.7h7.1c1.6,0,3,1.1,3.5,2.5c0,0.1,0.1,0.1,0.1,0.2l3.6,9.8
								c0.4,1,0.3,2-0.2,2.9c0.8,0.3,1.7,0.4,2.6,0.1h0C337.9,668.3,338.9,666.2,338.2,664.2z"/>
							<path class="st8" d="M308.4,659.1l-3.8,9.5c0,0.1-0.2,0.2-0.2,0.4c0,0,0.1,0,0.1,0.1c1.9,0.7,4.1-0.3,4.8-2.2l3.1-7.7H308.4z
								"/>
						</g>
						<path class="st7" d="M320.2,648c24.8,0,44.9-20.1,44.9-44.9h-89.8C275.3,627.9,295.4,648,320.2,648z"/>
						<path class="st8" d="M343.8,603.1c0,21.1-14.6,38.8-34.2,43.6c3.4,0.8,7,1.3,10.7,1.3c24.8,0,44.9-20.1,44.9-44.9H343.8z"/>
						<path class="st12" d="M365.3,608.3h-90.2c-3.3,0-6-2.7-6-6l0,0c0-3.3,2.7-6,6-6h90.2c3.3,0,6,2.7,6,6l0,0
							C371.3,605.6,368.6,608.3,365.3,608.3z"/>
					</g>
				</g>
			</g>
			<g>
				<g>
					<g>
						<polygon class="st4" points="1133.1,690.4 1100.1,690.4 1099.9,690.4 1067,690.4 1074.5,774.1 1125.6,774.1 						"/>
						<polygon class="st12" points="1131.9,703 1133.1,690.4 1067,690.4 1068.1,703 						"/>
						<polygon class="st12" points="1117.7,690.4 1110.2,774.1 1125.6,774.1 1133.1,690.4 						"/>
						<polygon class="st4" points="1132.9,687.7 1067.2,687.7 1068.8,676.8 1131.1,676.8 						"/>
						<rect x="1062.5" y="685.2" class="st6" width="75.1" height="10.1"/>
					</g>
					<g>
						<circle class="st6" cx="1100" cy="725.8" r="17.2"/>
						<g>
							<path class="st14" d="M1093.8,719.5c-4.4,4.4-5.3,10.6-2,13.9l15.9-15.9C1104.4,714.2,1098.2,715.1,1093.8,719.5z"/>
							<path class="st14" d="M1108.3,718.2l-15.9,15.9c3.3,3.3,9.5,2.4,13.9-2C1110.7,727.7,1111.6,721.4,1108.3,718.2z"/>
						</g>
					</g>
				</g>
			</g>
			<g>
				<g>
					<g>
						<polygon class="st4" points="1124.6,247.6 1095.2,247.6 1095,247.6 1065.6,247.6 1072.3,172.9 1117.9,172.9 						"/>
						<polygon class="st12" points="1123.6,236.4 1124.6,247.6 1065.6,247.6 1066.6,236.4 						"/>
						<polygon class="st12" points="1110.9,247.6 1104.2,172.9 1117.9,172.9 1124.6,247.6 						"/>
						<rect x="1061.6" y="243.3" class="st6" width="67.1" height="9"/>
					</g>
					<g>
						<circle class="st6" cx="1095.1" cy="216" r="15.3"/>
						<g>
							<path class="st14" d="M1089.5,221.6c-3.9-3.9-4.7-9.5-1.8-12.4l14.2,14.2C1099,226.4,1093.5,225.6,1089.5,221.6z"/>
							<path class="st14" d="M1102.5,222.9l-14.2-14.2c2.9-2.9,8.5-2.1,12.4,1.8C1104.6,214.4,1105.5,219.9,1102.5,222.9z"/>
						</g>
					</g>
				</g>
			</g>
			<g>
				<g>
					<g>
						<polygon class="st4" points="1124.6,231 1095.2,231 1095,231 1065.6,231 1072.3,156.2 1117.9,156.2 						"/>
						<polygon class="st12" points="1123.6,219.7 1124.6,231 1065.6,231 1066.6,219.7 						"/>
						<polygon class="st12" points="1110.9,231 1104.2,156.2 1117.9,156.2 1124.6,231 						"/>
						<rect x="1061.6" y="226.6" class="st6" width="67.1" height="9"/>
					</g>
					<g>
						<circle class="st6" cx="1095.1" cy="199.4" r="15.3"/>
						<g>
							<path class="st14" d="M1089.5,205c-3.9-3.9-4.7-9.5-1.8-12.4l14.2,14.2C1099,209.7,1093.5,208.9,1089.5,205z"/>
							<path class="st14" d="M1102.5,206.2l-14.2-14.2c2.9-2.9,8.5-2.1,12.4,1.8C1104.6,197.7,1105.5,203.3,1102.5,206.2z"/>
						</g>
					</g>
				</g>
			</g>
			<g>
				<g>
					<g>
						<polygon class="st4" points="1124.6,215.5 1095.2,215.5 1095,215.5 1065.6,215.5 1072.3,140.8 1117.9,140.8 						"/>
						<polygon class="st12" points="1123.6,204.3 1124.6,215.5 1065.6,215.5 1066.6,204.3 						"/>
						<polygon class="st12" points="1110.9,215.5 1104.2,140.8 1117.9,140.8 1124.6,215.5 						"/>
						<rect x="1061.6" y="211.2" class="st6" width="67.1" height="9"/>
					</g>
					<g>
						<circle class="st6" cx="1095.1" cy="184" r="15.3"/>
						<g>
							<path class="st14" d="M1089.5,189.6c-3.9-3.9-4.7-9.5-1.8-12.4l14.2,14.2C1099,194.3,1093.5,193.5,1089.5,189.6z"/>
							<path class="st14" d="M1102.5,190.8l-14.2-14.2c2.9-2.9,8.5-2.1,12.4,1.8C1104.6,182.3,1105.5,187.8,1102.5,190.8z"/>
						</g>
					</g>
				</g>
			</g>
			<g>
				<g>
					<g>
						<polygon class="st4" points="1045.7,247.6 1016.3,247.6 1016.2,247.6 986.8,247.6 993.4,172.9 1039.1,172.9 						"/>
						<polygon class="st12" points="1044.7,236.4 1045.7,247.6 986.8,247.6 987.8,236.4 						"/>
						<polygon class="st12" points="1032,247.6 1025.3,172.9 1039.1,172.9 1045.7,247.6 						"/>
						<rect x="982.7" y="243.3" class="st6" width="67.1" height="9"/>
					</g>
					<g>
						<circle class="st6" cx="1016.3" cy="216" r="15.3"/>
						<g>
							<path class="st14" d="M1010.7,221.6c-3.9-3.9-4.7-9.5-1.8-12.4l14.2,14.2C1020.1,226.4,1014.6,225.6,1010.7,221.6z"/>
							<path class="st14" d="M1023.7,222.9l-14.2-14.2c2.9-2.9,8.5-2.1,12.4,1.8C1025.8,214.4,1026.6,219.9,1023.7,222.9z"/>
						</g>
					</g>
				</g>
			</g>
			<g>
				<g>
					<g>
						<polygon class="st4" points="1045.7,231 1016.3,231 1016.2,231 986.8,231 993.4,156.2 1039.1,156.2 						"/>
						<polygon class="st12" points="1044.7,219.7 1045.7,231 986.8,231 987.8,219.7 						"/>
						<polygon class="st12" points="1032,231 1025.3,156.2 1039.1,156.2 1045.7,231 						"/>
						<rect x="982.7" y="226.6" class="st6" width="67.1" height="9"/>
					</g>
					<g>
						<circle class="st6" cx="1016.3" cy="199.4" r="15.3"/>
						<g>
							<path class="st14" d="M1010.7,205c-3.9-3.9-4.7-9.5-1.8-12.4l14.2,14.2C1020.1,209.7,1014.6,208.9,1010.7,205z"/>
							<path class="st14" d="M1023.7,206.2l-14.2-14.2c2.9-2.9,8.5-2.1,12.4,1.8C1025.8,197.7,1026.6,203.3,1023.7,206.2z"/>
						</g>
					</g>
				</g>
			</g>
			<g>
				<g>
					<g>
						<polygon class="st4" points="970.1,247.8 940.7,247.8 940.6,247.8 911.2,247.8 917.8,173 963.5,173 						"/>
						<polygon class="st12" points="969.1,236.5 970.1,247.8 911.2,247.8 912.2,236.5 						"/>
						<polygon class="st12" points="956.4,247.8 949.7,173 963.5,173 970.1,247.8 						"/>
						<rect x="907.1" y="243.4" class="st6" width="67.1" height="9"/>
					</g>
					<g>
						<circle class="st6" cx="940.7" cy="216.2" r="15.3"/>
						<g>
							<path class="st14" d="M935.1,221.8c-3.9-3.9-4.7-9.5-1.8-12.4l14.2,14.2C944.5,226.5,939,225.7,935.1,221.8z"/>
							<path class="st14" d="M948.1,223l-14.2-14.2c2.9-2.9,8.5-2.1,12.4,1.8C950.2,214.5,951,220.1,948.1,223z"/>
						</g>
					</g>
				</g>
			</g>
			<g>
				<polygon class="st7" points="344.5,684.7 318.4,684.7 318.3,684.7 292.1,684.7 295.9,721.4 340.8,721.4 				"/>
				<polygon class="st13" points="325.6,684.7 321.9,721.4 340.8,721.4 344.5,684.7 				"/>
				<polygon class="st4" points="295.9,721.4 298.1,743.1 338.6,743.1 340.8,721.4 				"/>
				<polygon class="st12" points="297.4,736.3 298.1,743.1 338.6,743.1 339.3,736.3 				"/>
				<polygon class="st12" points="322.5,721.4 320.3,743.1 338.6,743.1 340.8,721.4 				"/>
			</g>
			<g>
				<polygon class="st7" points="1033.6,704.1 1002.5,704.1 1002.3,704.1 971.2,704.1 975.7,747.8 1029.1,747.8 				"/>
				<polygon class="st13" points="1011.1,704.1 1006.6,747.8 1029.1,747.8 1033.6,704.1 				"/>
				<polygon class="st4" points="975.7,747.8 978.3,773.6 1026.5,773.6 1029.1,747.8 				"/>
				<polygon class="st12" points="977.4,765.5 978.3,773.6 1026.5,773.6 1027.4,765.5 				"/>
				<polygon class="st12" points="1007.4,747.8 1004.7,773.6 1026.5,773.6 1029.1,747.8 				"/>
			</g>
			<g>
				<path class="st8" d="M941.7,674.7h-73.4l-6.5-15.7c-1-2.3,0.7-4.9,3.2-4.9h67.9c4.9,0,8.8,3.9,8.8,8.8V674.7z"/>
				<polygon class="st13" points="952.5,736.8 859.5,736.8 867.5,674.6 941.8,674.6 				"/>
				<polygon class="st12" points="957.2,774.1 856,774.1 859.5,736.8 952.5,736.8 				"/>
				<polygon class="st8" points="936.4,736.8 859.5,736.8 867.5,674.6 925.7,674.6 				"/>
				<polygon class="st4" points="941.1,774.1 856,774.1 859.5,736.8 936.4,736.8 				"/>
				<polygon class="st4" points="943.6,684.8 941.8,674.6 867.5,674.6 866.2,684.8 				"/>
				<polygon class="st12" points="941.8,674.6 925.4,674.6 927.2,684.8 943.6,684.8 				"/>
				<path class="st4" d="M943.6,684.8l61.3,5.5c6.9,0.6,12.8-4.8,12.8-11.7l0,0c0-7.1-6.2-12.5-13.2-11.7l-62.7,7.6L943.6,684.8z"/>
				<path class="st12" d="M1009.2,667.4c0.9,1.7,1.5,3.6,1.5,5.7c0,6.9-5.9,12.3-12.8,11.7l-55.1-4.9l0.9,5l61.3,5.5
					c6.9,0.6,12.8-4.8,12.8-11.7C1017.7,673.2,1014,668.8,1009.2,667.4z"/>
			</g>
			<g>
				<rect x="166.8" y="859.4" class="st1" width="1033.2" height="364"/>
				<rect x="166.8" y="785.8" class="st6" width="42.6" height="437.6"/>
				<rect x="112.9" y="773.5" class="st1" width="1141" height="60.7"/>
				<rect x="112.9" y="773.5" class="st6" width="49.9" height="60.7"/>
				<rect x="1107.3" y="773.5" class="st2" width="146.6" height="60.7"/>
				<g>
					<rect x="998.1" y="859.4" class="st15" width="201.9" height="364"/>
					<rect x="166.8" y="834.2" class="st15" width="1033.2" height="25.2"/>
				</g>
			</g>
			<g>
				<path class="st4" d="M965.4,1298.5L929,1036.2c0-0.1,0-0.2,0-0.2c0-1.3-0.2-2.6-0.6-3.8l-8.2-59c-1.1-7.7-8.1-13-15.8-11.9
					c-7.7,1.1-13,8.1-11.9,15.8l6.2,45h-58.2l6.2-45c1.1-7.7-4.3-14.7-11.9-15.8c-7.7-1.1-14.7,4.3-15.8,11.9l-8,57.6
					c-0.7,1.6-1,3.4-1,5.2c0,0.4,0.1,0.9,0.1,1.3L774,1297.1c-1.1,7.7,4.3,14.7,11.9,15.8c0.7,0.1,1.3,0.1,1.9,0.1
					c6.9,0,12.9-5.1,13.8-12.1l13.7-98.5h108.3l13.9,99.9c1,7,7,12.1,13.8,12.1c0.6,0,1.3,0,1.9-0.1
					C961.1,1313.2,966.4,1306.1,965.4,1298.5z M819.3,1174.4l17.3-124.4h66l17.3,124.4H819.3z"/>
				<g>
					<polygon class="st12" points="836.6,1050 826.3,1050 809.1,1174.4 819.3,1174.4 					"/>
					<path class="st12" d="M836.5,977l-6.2,45h10.3l6.2-45c1.1-7.7-4.3-14.7-11.9-15.8c-2.5-0.3-4.9,0-7,0.9
						C833.6,964.5,837.4,970.5,836.5,977z"/>
					<path class="st12" d="M965.4,1298.5L929,1036.2c0-0.1,0-0.2,0-0.2c0-1.3-0.2-2.6-0.6-3.8l-8.2-59c-1.1-7.7-8.1-13-15.8-11.9
						c-1.1,0.2-2.2,0.5-3.2,0.9c4.5,1.8,8,5.9,8.8,11l8.2,59c0.3,1.2,0.6,2.5,0.6,3.8c0,0.1,0,0.2,0,0.2l36.4,262.2
						c0.9,6.5-2.9,12.6-8.8,14.9c1.6,0.6,3.3,1,5.1,1c0.6,0,1.3,0,1.9-0.1C961.1,1313.2,966.4,1306.1,965.4,1298.5z"/>
					<path class="st12" d="M791.5,1300.9c-0.7,5.2-4.2,9.3-8.7,11.1c1,0.4,2.1,0.7,3.2,0.9c0.7,0.1,1.3,0.1,1.9,0.1
						c6.9,0,12.9-5.1,13.8-12.1l13.7-98.5h-10.3L791.5,1300.9z"/>
				</g>
				<path class="st12" d="M895.2,996.7h28.3l-3.3-23.5c-1.1-7.7-8.1-13-15.8-11.9c-7.7,1.1-13,8.1-11.9,15.8L895.2,996.7z"/>
				<path class="st12" d="M844,996.7l2.7-19.7c1.1-7.7-4.3-14.7-11.9-15.8c-7.7-1.1-14.7,4.3-15.8,11.9l-3.3,23.5H844z"/>
				<path class="st16" d="M963.9,982.6H775.6c-9.8,0-17.8-8-17.8-17.8v-24c0-9.8,8-17.8,17.8-17.8h188.3c9.8,0,17.8,8,17.8,17.8v24
					C981.7,974.5,973.7,982.6,963.9,982.6z"/>
				<path class="st4" d="M951.8,922.8h-48.3c16.4,0,29.9,13.4,29.9,29.9v0c0,0.1,0,0.1,0,0.2c-0.1,8.8-7.6,15.8-16.4,15.8H762.4
					c5.3,8.3,14.6,13.9,25.2,13.9h116h48.3c1.2,0,2.4-0.1,3.5-0.2c0.3,0,0.7-0.1,1-0.2c0.8-0.1,1.7-0.3,2.5-0.5
					c0.3-0.1,0.7-0.2,1-0.3c0.9-0.3,1.9-0.6,2.8-0.9c0.2-0.1,0.3-0.1,0.5-0.2c1.1-0.5,2.2-1,3.2-1.6c0.1,0,0.1-0.1,0.2-0.1
					c1-0.6,1.9-1.2,2.8-1.8c0.1-0.1,0.3-0.2,0.4-0.3c0.9-0.7,1.7-1.4,2.5-2.1c0,0,0.1-0.1,0.1-0.1c5.7-5.5,9.3-13.1,9.3-21.6v0
					C981.7,936.3,968.3,922.8,951.8,922.8z"/>
			</g>
			<g>
				<path class="st4" d="M590.1,1298.5l-36.4-262.2c0-0.1,0-0.2,0-0.2c0-1.3-0.2-2.6-0.6-3.8l-8.2-59c-1.1-7.7-8.1-13-15.8-11.9
					c-7.7,1.1-13,8.1-11.9,15.8l6.2,45h-58.2l6.2-45c1.1-7.7-4.3-14.7-11.9-15.8c-7.7-1.1-14.7,4.3-15.8,11.9l-8,57.6
					c-0.7,1.6-1,3.4-1,5.2c0,0.4,0.1,0.9,0.1,1.3l-36.1,259.8c-1.1,7.7,4.3,14.7,11.9,15.8c0.7,0.1,1.3,0.1,1.9,0.1
					c6.9,0,12.9-5.1,13.8-12.1l13.7-98.5h108.3l13.9,99.9c1,7,7,12.1,13.8,12.1c0.6,0,1.3,0,1.9-0.1
					C585.8,1313.2,591.1,1306.1,590.1,1298.5z M444,1174.4l17.3-124.4h66l17.3,124.4H444z"/>
				<g>
					<polygon class="st12" points="461.3,1050 451,1050 433.8,1174.4 444,1174.4 					"/>
					<path class="st12" d="M461.2,977l-6.2,45h10.3l6.2-45c1.1-7.7-4.3-14.7-11.9-15.8c-2.5-0.3-4.9,0-7,0.9
						C458.3,964.5,462.1,970.5,461.2,977z"/>
					<path class="st12" d="M590.1,1298.5l-36.4-262.2c0-0.1,0-0.2,0-0.2c0-1.3-0.2-2.6-0.6-3.8l-8.2-59c-1.1-7.7-8.1-13-15.8-11.9
						c-1.1,0.2-2.2,0.5-3.2,0.9c4.5,1.8,8.1,5.9,8.8,11l8.2,59c0.3,1.2,0.6,2.5,0.6,3.8c0,0.1,0,0.2,0,0.2l36.4,262.2
						c0.9,6.5-2.9,12.6-8.8,14.9c1.6,0.6,3.3,1,5.1,1c0.6,0,1.3,0,1.9-0.1C585.8,1313.2,591.1,1306.1,590.1,1298.5z"/>
					<path class="st12" d="M416.2,1300.9c-0.7,5.2-4.2,9.3-8.7,11.1c1,0.4,2.1,0.7,3.2,0.9c0.7,0.1,1.3,0.1,1.9,0.1
						c6.9,0,12.9-5.1,13.8-12.1l13.7-98.5h-10.3L416.2,1300.9z"/>
				</g>
				<path class="st12" d="M519.9,996.7h28.3l-3.3-23.5c-1.1-7.7-8.1-13-15.8-11.9c-7.7,1.1-13,8.1-11.9,15.8L519.9,996.7z"/>
				<path class="st12" d="M468.7,996.7l2.7-19.7c1.1-7.7-4.3-14.7-11.9-15.8c-7.7-1.1-14.7,4.3-15.8,11.9l-3.3,23.5H468.7z"/>
				<path class="st16" d="M588.5,982.6H400.2c-9.8,0-17.8-8-17.8-17.8v-24c0-9.8,8-17.8,17.8-17.8h188.3c9.8,0,17.8,8,17.8,17.8v24
					C606.4,974.5,598.4,982.6,588.5,982.6z"/>
				<path class="st4" d="M576.5,922.8h-48.3c16.4,0,29.9,13.4,29.9,29.9v0c0,0.1,0,0.1,0,0.2c-0.1,8.8-7.6,15.8-16.4,15.8H387.1
					c5.3,8.3,14.6,13.9,25.2,13.9h116h48.3c1.2,0,2.4-0.1,3.5-0.2c0.3,0,0.7-0.1,1-0.2c0.8-0.1,1.7-0.3,2.5-0.5
					c0.3-0.1,0.7-0.2,1-0.3c0.9-0.3,1.9-0.6,2.8-0.9c0.2-0.1,0.3-0.1,0.5-0.2c1.1-0.5,2.2-1,3.2-1.6c0.1,0,0.1-0.1,0.2-0.1
					c1-0.6,1.9-1.2,2.8-1.8c0.1-0.1,0.3-0.2,0.4-0.3c0.9-0.7,1.7-1.4,2.5-2.1c0,0,0.1-0.1,0.1-0.1c5.7-5.5,9.3-13.1,9.3-21.6v0
					C606.4,936.3,593,922.8,576.5,922.8z"/>
			</g>
			<g>
				<g>
					<g>
						<path class="st17" d="M1117.9,936.4c10.9,61.7,65.9,103.6,65.9,103.6s37.4-58.2,26.5-119.9c-10.9-61.7-65.9-103.6-65.9-103.6
							S1107,874.6,1117.9,936.4z"/>
						<path class="st18" d="M1182.1,1038.7l-5.6-31.9l-24.6-17.2c-0.7-0.5-0.8-1.4-0.4-2c0.5-0.7,1.4-0.8,2-0.4l22.2,15.5l-5.2-29.6
							l-25.3-17.7c-0.7-0.5-0.8-1.4-0.4-2c0.5-0.7,1.4-0.8,2-0.4l22.9,16l-5-28.2l-24.7-17.3c-0.7-0.5-0.8-1.4-0.4-2
							c0.5-0.7,1.4-0.8,2-0.4l22.3,15.6l-8.5-48c-0.1-0.8,0.4-1.6,1.2-1.7c0.8-0.1,1.6,0.4,1.7,1.2l4.9,27.7l15.9-22.7
							c0.5-0.7,1.4-0.8,2-0.4c0.7,0.5,0.8,1.4,0.4,2l-17.6,25.1l5.1,29.1l16-22.8c0.5-0.7,1.4-0.8,2-0.4c0.7,0.5,0.8,1.4,0.4,2
							l-17.7,25.2l5.6,31.7l15.9-22.6c0.5-0.7,1.4-0.8,2-0.4c0.7,0.5,0.8,1.4,0.4,2l-17.5,25l2.9,16.2l0.1,0.1l-0.1,0.1l5.8,32.9
							c-0.7,1.2-1.2,1.9-1.2,1.9S1183.1,1039.5,1182.1,1038.7z"/>
					</g>
					<g>
						<path class="st19" d="M1165.9,957.7c-5.5,62.4,36.8,117.2,36.8,117.2s51.1-46.5,56.6-109c5.5-62.4-36.8-117.2-36.8-117.2
							S1171.3,895.3,1165.9,957.7z"/>
						<path class="st20" d="M1201.4,1073.2l2.8-32.3l-19.3-23c-0.5-0.6-0.4-1.5,0.2-2.1c0.6-0.5,1.5-0.4,2.1,0.2l17.4,20.7l2.6-30
							l-19.8-23.6c-0.5-0.6-0.4-1.5,0.2-2.1c0.6-0.5,1.5-0.4,2.1,0.2l17.9,21.4l2.5-28.6l-19.4-23.1c-0.5-0.6-0.4-1.5,0.2-2.1
							c0.6-0.5,1.5-0.4,2.1,0.2l17.5,20.8l4.2-48.6c0.1-0.8,0.8-1.4,1.6-1.3c0.8,0.1,1.4,0.8,1.3,1.6l-2.5,28.1l21.2-17.8
							c0.6-0.5,1.5-0.4,2.1,0.2c0.5,0.6,0.4,1.5-0.2,2.1l-23.5,19.7l-2.6,29.4l21.3-17.9c0.6-0.5,1.5-0.4,2.1,0.2
							c0.5,0.6,0.4,1.5-0.2,2.1l-23.6,19.8l-2.8,32.1l21.2-17.8c0.6-0.5,1.5-0.4,2.1,0.2c0.5,0.6,0.4,1.5-0.2,2.1l-23.4,19.6
							l-1.4,16.4l0.1,0.1l-0.1,0.1l-2.9,33.3c-1,1-1.6,1.6-1.6,1.6S1202.2,1074.3,1201.4,1073.2z"/>
					</g>
					<g>
						<path class="st17" d="M1188.7,1000.8c-26.5,56.8-5.5,122.7-5.5,122.7s64-26.2,90.5-83.1c26.5-56.8,5.5-122.7,5.5-122.7
							S1215.2,944,1188.7,1000.8z"/>
						<path class="st18" d="M1265.8,1001.5c-0.3-0.8-1.1-1.2-1.9-0.9l-26.1,9.5l11.9-25.5c0.3-0.7,0-1.6-0.7-1.9
							c-0.7-0.3-1.6,0-1.9,0.7l-20.6,44.2l-9.3-25.6c-0.3-0.8-1.1-1.2-1.9-0.9c-0.8,0.3-1.2,1.1-0.9,1.9l10.3,28.3l-12.1,26
							l-9.5-26.2c-0.3-0.8-1.1-1.2-1.9-0.9c-0.8,0.3-1.2,1.1-0.9,1.9l10.6,29l-12.7,27.3l-9.3-25.4c-0.3-0.8-1.1-1.2-1.9-0.9
							c-0.8,0.3-1.2,1.1-0.9,1.9l10.3,28.2l-13.7,29.4c0.4,1.3,0.6,2.1,0.6,2.1s0.7-0.3,2.1-0.9l14.1-30.3l0.1,0l0-0.1l6.9-14.9
							l28.7-10.5c0.8-0.3,1.2-1.1,0.9-1.9c-0.3-0.8-1.1-1.2-1.9-0.9l-26,9.5l13.6-29.2l28.9-10.5c0.8-0.3,1.2-1.1,0.9-1.9
							c-0.3-0.8-1.1-1.2-1.9-0.9l-26.2,9.5l12.5-26.8l28.8-10.5C1265.6,1003.1,1266,1002.2,1265.8,1001.5z"/>
					</g>
					<g>
						<path class="st20" d="M1189.9,1017.4c20.5,56.3-5,117.3-5,117.3s-58.8-30.3-79.3-86.6c-20.5-56.3,5-117.3,5-117.3
							S1169.4,961.1,1189.9,1017.4z"/>
						<path class="st17" d="M1185.6,1132.8l-10.6-29.1l12.1-26c0.3-0.7,0-1.5-0.7-1.9c-0.7-0.3-1.5,0-1.9,0.7l-10.9,23.5l-9.8-27
							l12.5-26.7c0.3-0.7,0-1.5-0.7-1.9c-0.7-0.3-1.5,0-1.9,0.7l-11.3,24.2l-9.4-25.8l12.2-26.1c0.3-0.7,0-1.5-0.7-1.9
							c-0.7-0.3-1.5,0-1.9,0.7l-11,23.6l-15.9-43.8c-0.3-0.7-1.1-1.1-1.8-0.8c-0.7,0.3-1.1,1.1-0.8,1.8l9.2,25.3l-24-11.2
							c-0.7-0.3-1.5,0-1.9,0.7c-0.3,0.7,0,1.5,0.7,1.9l26.6,12.4l9.7,26.5l-24.1-11.3c-0.7-0.3-1.5,0-1.9,0.7
							c-0.3,0.7,0,1.5,0.7,1.9l26.7,12.4l10.5,28.9l-23.9-11.2c-0.7-0.3-1.5,0-1.9,0.7c-0.3,0.7,0,1.5,0.7,1.9l26.5,12.4l5.4,14.8
							l0,0.1l0.1,0l10.9,30c1.2,0.7,1.9,1,1.9,1S1185.1,1134.1,1185.6,1132.8z"/>
					</g>
				</g>
				<g>
					<polygon class="st16" points="1183.1,1080.4 1187.7,1080.4 1266.3,1080.4 1240.9,1249.5 1187.7,1249.5 1183.1,1249.5 
						1129.9,1249.5 1104.4,1080.4 					"/>
					<path class="st12" d="M1187.7,1080.4h-4.6h-78.7l4.6,30.8h43.2h4.6h23.2c29.2,0,51.5,26,47.2,54.8l-12.6,83.4h26.2l25.4-169.1
						H1187.7z"/>
					
						<rect x="1091.3" y="1080.3" transform="matrix(-1 -1.224647e-16 1.224647e-16 -1 2370.7451 2174.3525)" class="st4" width="188.2" height="13.7"/>
				</g>
			</g>
			<g>
				<g>
					<g>
						<g>
							<rect x="244.4" y="261.5" class="st4" width="38.9" height="14.6"/>
							<rect x="211.2" y="261.5" class="st11" width="33.2" height="14.6"/>
							<rect x="211.2" y="276.1" class="st4" width="33.2" height="105.1"/>
							<rect x="244.4" y="276.1" class="st12" width="38.9" height="105.1"/>
						</g>
						<g class="st21">
							<path class="st6" d="M236.3,310.4c-7.7,7.7-9.3,18.6-3.6,24.4l27.9-27.9C254.9,301.1,244,302.6,236.3,310.4z"/>
							<path class="st6" d="M261.8,308l-27.9,27.9c5.7,5.7,16.6,4.1,24.4-3.6S267.5,313.7,261.8,308z"/>
						</g>
					</g>
					<g>
						<g>
							<rect x="355.6" y="261.5" class="st4" width="38.9" height="14.6"/>
							<rect x="322.5" y="261.5" class="st11" width="33.2" height="14.6"/>
							<rect x="322.5" y="276.1" class="st4" width="33.2" height="105.1"/>
							<rect x="355.6" y="276.1" class="st12" width="38.9" height="105.1"/>
						</g>
						<g class="st21">
							<path class="st6" d="M347.5,310.4c-7.7,7.7-9.3,18.6-3.6,24.4l27.9-27.9C366.1,301.1,355.2,302.6,347.5,310.4z"/>
							<path class="st6" d="M373.1,308l-27.9,27.9c5.7,5.7,16.6,4.1,24.4-3.6S378.8,313.7,373.1,308z"/>
						</g>
					</g>
				</g>
			</g>
			<g>
				<path class="st1" d="M1150.4,479.8H900.8c-7.9,0-14.3-6.4-14.3-14.3l0,0c0-7.9,6.4-14.3,14.3-14.3h249.5
					c7.9,0,14.3,6.4,14.3,14.3l0,0C1164.7,473.3,1158.3,479.8,1150.4,479.8z"/>
				<path class="st2" d="M1164.1,469.4c0.4-1.3,0.6-2.5,0.6-3.9c0-7.9-6.4-14.3-14.3-14.3h-47.6c7.9,0,14.3,6.4,14.3,14.3
					c0,1.4-0.3,2.7-0.6,3.9H887.1c1.7,6,7.2,10.4,13.7,10.4h201.9h47.6c0.9,0,1.8-0.1,2.6-0.3c0.3-0.1,0.6-0.2,0.9-0.2
					c0.5-0.1,1-0.3,1.5-0.5c0.4-0.1,0.7-0.3,1.1-0.5c0.4-0.2,0.7-0.4,1.1-0.6c0.4-0.2,0.8-0.5,1.2-0.8c0.2-0.2,0.4-0.3,0.6-0.5
					C1161.7,474.6,1163.3,472.2,1164.1,469.4L1164.1,469.4L1164.1,469.4z"/>
			</g>
			<g>
				<path class="st1" d="M1150.4,281H900.8c-7.9,0-14.3-6.4-14.3-14.3l0,0c0-7.9,6.4-14.3,14.3-14.3h249.5c7.9,0,14.3,6.4,14.3,14.3
					l0,0C1164.7,274.5,1158.3,281,1150.4,281z"/>
				<path class="st2" d="M1164.1,270.6c0.4-1.3,0.6-2.5,0.6-3.9c0-7.9-6.4-14.3-14.3-14.3h-47.6c7.9,0,14.3,6.4,14.3,14.3
					c0,1.4-0.3,2.7-0.6,3.9H887.1c1.7,6,7.2,10.4,13.7,10.4h201.9h47.6c0.9,0,1.8-0.1,2.6-0.3c0.3-0.1,0.6-0.2,0.9-0.2
					c0.5-0.1,1-0.3,1.5-0.5c0.4-0.1,0.7-0.3,1.1-0.5c0.4-0.2,0.7-0.4,1.1-0.6c0.4-0.2,0.8-0.5,1.2-0.8c0.2-0.2,0.4-0.3,0.6-0.5
					C1161.7,275.8,1163.3,273.4,1164.1,270.6L1164.1,270.6L1164.1,270.6z"/>
			</g>
			<g>
				<polygon class="st13" points="992.5,368.3 940.2,368.3 932,354.7 992.5,354.7 				"/>
				<path class="st13" d="M1014.6,408.9c0-17.2-9-32.3-22.5-40.8h-51.6c-13.5,8.6-22.5,23.6-22.5,40.8c0,0.4,0,0.8,0,1.1h96.5
					C1014.6,409.7,1014.6,409.3,1014.6,408.9z"/>
				<path class="st14" d="M918.1,410c0.4,17.6,10.3,33,24.7,41h47.1c14.5-8.1,24.3-23.4,24.7-41H918.1z"/>
				<g>
					<path class="st22" d="M1021.9,363h-48.6c-1,0-1.8-0.8-1.8-1.8l0,0c0-1,0.8-1.8,1.8-1.8h48.6c1,0,1.8,0.8,1.8,1.8l0,0
						C1023.7,362.2,1022.9,363,1021.9,363z"/>
					<path class="st22" d="M1023.7,362.6v24.9c0,1.6-1.3,3-3,3l0,0c-1.6,0-3-1.3-3-3v-24.9c0-1.6,1.3-3,3-3l0,0
						C1022.4,359.6,1023.7,361,1023.7,362.6z"/>
				</g>
			</g>
			<g>
				<g>
					<path class="st17" d="M1091.4,416.4L1091.4,416.4c-4.4,0-8-3.6-8-8v-86.6c0-4.4,8-8,8-8l0,0c0,0,8,3.6,8,8v86.6
						C1099.4,412.8,1095.8,416.4,1091.4,416.4z"/>
					<path class="st19" d="M1087.3,423.3L1087.3,423.3c-4-1.8-6-6-4.5-9.2l36.2-77.6c1.5-3.2,9.9-2.5,9.9-2.5l0,0c0,0,6,6,4.5,9.2
						l-36.2,77.6C1095.7,424,1091.3,425.1,1087.3,423.3z"/>
					<path class="st20" d="M1095.2,421L1095.2,421c-3.8,2.2-8.7,0.9-10.9-2.9l-25.6-44.4c-2.2-3.8,2.9-10.9,2.9-10.9l0,0
						c0,0,8.7-0.9,10.9,2.9l25.6,44.4C1100.3,414,1099,418.9,1095.2,421z"/>
				</g>
				<path class="st16" d="M1103.3,451.4h-21.8c-15.9,0-28.9-12.9-28.9-28.9v-19.4h79.6v19.4C1132.2,438.5,1119.2,451.4,1103.3,451.4
					z"/>
			</g>
			<g>
				<g>
					<g>
						<rect x="535.7" y="85.6" class="st1" width="126" height="172.2"/>
						<rect x="549.9" y="105.1" class="st3" width="97.5" height="133.2"/>
					</g>
					<g class="st23">
						<path class="st24" d="M599.4,156.2c-9.2,15.9-4.7,35.7-4.7,35.7s19.4-6,28.6-22c9.2-15.9,4.7-35.7,4.7-35.7
							S608.6,140.2,599.4,156.2z"/>
						<path class="st25" d="M609.2,158.6c-3.2,18.3-19.5,30.7-19.5,30.7s-11.1-17.2-7.8-35.5c3.2-18.3,19.5-30.7,19.5-30.7
							S612.5,140.4,609.2,158.6z"/>
						<path class="st26" d="M596.9,185.9c-2.8,5.9-9.8,8.5-15.7,5.7c-5.9-2.8-8.5-9.8-5.7-15.7c2.8-5.9,9.8-8.5,15.7-5.7
							C597.1,172.9,599.6,180,596.9,185.9z"/>
						<path class="st27" d="M608.7,200.4c-2.8,5.9-9.8,8.5-15.7,5.7c-5.9-2.8-8.5-9.8-5.7-15.7c2.8-5.9,9.8-8.5,15.7-5.7
							C608.9,187.4,611.5,194.5,608.7,200.4z"/>
						<path class="st28" d="M587.6,201.4c-2.4,5.1-8.4,7.3-13.5,4.9c-5.1-2.4-7.3-8.4-4.9-13.5s8.4-7.3,13.5-4.9
							S590,196.3,587.6,201.4z"/>
					</g>
				</g>
				<g>
					<g>
						<rect x="705.1" y="85.6" class="st1" width="126" height="172.2"/>
						<rect x="719.3" y="105.1" class="st3" width="97.5" height="133.2"/>
					</g>
					<g class="st23">
						<polygon class="st26" points="768.5,213.3 747.5,224.4 747.5,154.3 789.5,154.3 789.5,224.4 						"/>
						<g>
							
								<ellipse transform="matrix(0.7071 -0.7071 0.7071 0.7071 112.5542 590.0065)" class="st1" cx="768.5" cy="159.1" rx="33.7" ry="33.7"/>
							<g>
								<polygon class="st29" points="768.5,130.7 776.7,147.4 795.1,150 781.8,163 784.9,181.3 768.5,172.7 752,181.3 755.2,163 
									741.9,150 760.3,147.4 								"/>
								<g>
									<path class="st26" d="M763.7,155.1c-3.4,3.4-4.1,8.2-1.6,10.7l12.2-12.2C771.8,151,767,151.7,763.7,155.1z"/>
									<path class="st26" d="M774.9,154l-12.2,12.2c2.5,2.5,7.3,1.8,10.7-1.6S777.4,156.5,774.9,154z"/>
								</g>
							</g>
						</g>
					</g>
				</g>
			</g>
			<g>
				<path class="st9" d="M683.1,561.4L683.1,561.4c-39.9,0-72.3-32.4-72.3-72.3v-48.9c0-39.9,32.4-72.3,72.3-72.3l0,0
					c39.9,0,72.3,32.4,72.3,72.3V489C755.4,529,723.1,561.4,683.1,561.4z"/>
				<polygon class="st22" points="610.8,366.2 610.8,366.4 610.9,366.4 				"/>
				<polygon class="st22" points="755.7,366.2 755.6,366.4 755.8,366.4 				"/>
				<g>
					<path class="st30" d="M700.7,518.8v4.8c0,0.4,0,0.7,0,1.1c-0.2,3.7-1.6,7-3.7,9.7c-3.2,4.1-8.2,6.8-13.8,6.8
						c-5.6,0-10.6-2.6-13.8-6.8c-2.1-2.7-3.5-6.1-3.7-9.7c0-0.4,0-0.7,0-1.1v-4.8H700.7z"/>
					<path class="st31" d="M700.7,518.8v4.8c0,0.4,0,0.7,0,1.1h-35c0-0.4,0-0.7,0-1.1v-4.8H700.7z"/>
					<path class="st32" d="M696.9,534.4c-3.2,4.1-8.2,6.8-13.8,6.8c-5.6,0-10.6-2.6-13.8-6.8c3.4-1.7,8.3-2.8,13.8-2.8
						S693.5,532.7,696.9,534.4z"/>
				</g>
				<path class="st33" d="M770.3,439.3c5-94.9-54.6-103.9-89.1-103.7c-100.3,0.4-86.5,103.7-86.5,103.7l0,0c0,0,1.1,19.5,4.2,24.6
					h14.6c-0.2-2.2-0.3-4.3-0.3-6.4l0.1-27.9h0.5c14.3,0.8,65-5.2,105.3-30.3c0,0,20.7,23.8,33,30.3l0,27.9c0,2.1-0.1,4.2-0.3,6.4
					h16.7C768.5,463.9,771.3,441.8,770.3,439.3L770.3,439.3z"/>
				<g>
					<path class="st9" d="M623.7,475.9c0,9.1-7.4,16.6-16.6,16.6c-9.1,0-16.6-7.4-16.6-16.6c0-9.1,7.4-16.6,16.6-16.6
						C616.3,459.4,623.7,466.8,623.7,475.9z"/>
					<path class="st9" d="M774.7,475.9c0,9.1-7.4,16.6-16.6,16.6c-9.1,0-16.6-7.4-16.6-16.6c0-9.1,7.4-16.6,16.6-16.6
						C767.3,459.4,774.7,466.8,774.7,475.9z"/>
				</g>
				<path class="st10" d="M690.6,497.3c0-2.8-3-2.9-6.8-2.9s-6.8,0.2-6.8,2.9c0,2.8,3,5,6.8,5S690.6,500,690.6,497.3z"/>
				<g>
					<circle class="st33" cx="651.5" cy="469.8" r="6.5"/>
					<path class="st33" d="M665.1,449.5h-27.7c-1.1,0-2,0.9-2,2v2.6c0,1.1,0.9,2,2,2h27.7c1.1,0,2-0.9,2-2v-2.6
						C667,450.4,666.2,449.5,665.1,449.5z"/>
				</g>
				<g>
					<circle class="st33" cx="717.4" cy="469.8" r="6.5"/>
					<path class="st33" d="M731,449.5h-27.7c-1.1,0-2,0.9-2,2v2.6c0,1.1,0.9,2,2,2H731c1.1,0,2-0.9,2-2v-2.6
						C732.9,450.4,732,449.5,731,449.5z"/>
				</g>
			</g>
			<polygon class="st12" points="304.2,743.3 293.7,774.1 466.1,774.1 466.1,743.3 			"/>
		</g>
	</g>
</g>
</svg>
